<?xml version="1.0" encoding="utf-8"?>
<!-- Generator: Adobe Illustrator 26.1.0, SVG Export Plug-In . SVG Version: 6.00 Build 0)  -->
<svg version="1.1" id="Logo" xmlns="http://www.w3.org/2000/svg" xmlns:xlink="http://www.w3.org/1999/xlink" x="0px" y="0px"
	 viewBox="0 0 906.4 179.2" style="enable-background:new 0 0 906.4 179.2;" xml:space="preserve">
<style type="text/css">
	.st0{fill:#F8951D;}
	.st1{fill:#FFFFFF;}
	.st2{fill:none;}
</style>
<g>
	<path class="st0" d="M186.4,65.9l-90-65.4c-1.4-1-3.3-1-4.7,0l-90,65.4c-1.4,1-2,2.8-1.5,4.5l34.5,105.8c0.5,1.6,2.1,2.8,3.8,2.8
		h111.2c1.7,0,3.3-1.1,3.8-2.8l34.4-105.8C188.4,68.8,187.8,67,186.4,65.9z M146.8,170.9H41.3L8.7,70.7L94,8.7l85.3,62L146.8,170.9z
		 M82.8,23.2l-6.8,5l11.2,8.1L37.1,72.7l-4.3-13.2L26,64.5l4.3,13.2l-11.2,8.1l2.6,8l11.2-8.1L52,144.6H38.2l2.6,8h13.8l4.3,13.2
		h8.4l-4.3-13.2h62l-4.3,13.2h8.4l4.3-13.2h13.9l2.6-8H136l19.1-58.9l11.2,8.1l2.6-8l-11.2-8.1l4.3-13.2l-6.8-4.9L151,72.7
		l-50.1-36.4l11.2-8.1l-6.8-5L94,31.4L82.8,23.2z M71.6,57.5l15.6,11.3L68.1,82.8l-6-18.3L71.6,57.5z M45.6,99.1l-6-18.3l15.6-11.3
		l6,18.3L45.6,99.1z M60.4,144.6l-6-18.3h19.3l6,18.3H60.4z M99.9,144.6H88.2l-6-18.3h23.7L99.9,144.6z M127.6,144.6h-19.3l6-18.3
		h19.3L127.6,144.6z M136.2,118.3H51.9l-3.6-11.2L94,73.8l45.8,33.3L136.2,118.3z M132.8,69.4l15.6,11.3l-6,18.3l-15.6-11.3
		L132.8,69.4z M126,64.5l-6,18.3l-19.1-13.9l15.6-11.3L126,64.5z M109.6,52.6L94,63.9L78.4,52.6L94,41.3L109.6,52.6z M77.9,113.1
		h-8.4l-4-12.2l6.8-5L77.9,113.1z M115.7,96l6.8,5l-4,12.2h-8.4L115.7,96z"/>
	<path class="st0" d="M722.4,57.6h12v77.9h-10.3l-44.3-56.6v56.6h-12v-72l-4.6-5.9h15.3l43.9,56.4L722.4,57.6z M777.8,99.5H813V88.3
		h-35.2V68.8H821V57.6h-55.4v77.9h56.8v-11.2h-44.6V99.5z M842.6,57.6v11.2h25.7v66.6h12.2V68.8h25.8V57.6H842.6z"/>
	<path class="st1" d="M607.5,52.3l-40,83.1h80.1L607.5,52.3z M607.5,79l21.4,45.7H586L607.5,79z M290.4,63.9
		c-4.5-4.2-10.9-6.3-19-6.3h-33.5v77.9h12.2v-32.2h21.2c8.2,0,14.5-2.1,19-6.4c4.6-4.3,7.2-10.4,7-16.7
		C297.3,73.4,295,68,290.4,63.9z M281.1,89c-2.6,2-6.2,3.1-10.8,3.1h-20.2V68.8h20.2c4.7,0,8.3,1,10.9,3c4.7,4.2,5.1,11.5,0.9,16.2
		C281.8,88.4,281.5,88.7,281.1,89z M335.3,124.2h44.6v11.2H323V57.6h55.4v11.2h-43.2v19.5h35.1v11.2h-35.1V124.2z M499.3,57.6h63.7
		v11.2h-25.8v66.6H525V68.8h-25.7V57.6z M461.5,57.6h12v77.9h-10.3l-44.3-56.6v56.6h-12v-72l-4.6-5.9h15.3l44,56.4L461.5,57.6z"/>
	<line class="st2" x1="599.5" y1="58.7" x2="586.6" y2="69"/>
	<line class="st2" x1="601.1" y1="60.3" x2="586.2" y2="79.1"/>
	<line class="st2" x1="598.2" y1="56.7" x2="576.7" y2="67.1"/>
	<line class="st2" x1="597.5" y1="54.6" x2="565.4" y2="61.9"/>
	<line class="st2" x1="597.5" y1="50" x2="581.4" y2="46.4"/>
	<line class="st2" x1="597.2" y1="52.3" x2="573.3" y2="52.4"/>
	<line class="st2" x1="598.2" y1="47.9" x2="576.7" y2="37.5"/>
	<line class="st2" x1="599.5" y1="45.9" x2="573.7" y2="25.4"/>
	<line class="st2" x1="603" y1="43.1" x2="595.9" y2="28.2"/>
	<line class="st2" x1="601.1" y1="44.3" x2="586.1" y2="25.7"/>
	<line class="st2" x1="605.2" y1="42.3" x2="599.9" y2="19"/>
	<line class="st2" x1="607.5" y1="42.1" x2="607.4" y2="9.1"/>
	<line class="st2" x1="611.9" y1="43.1" x2="619" y2="28.2"/>
	<line class="st2" x1="609.7" y1="42.3" x2="615" y2="19"/>
	<line class="st2" x1="613.8" y1="44.3" x2="628.7" y2="25.6"/>
	<line class="st2" x1="615.5" y1="45.9" x2="641.2" y2="25.3"/>
	<line class="st2" x1="617.4" y1="50" x2="633.5" y2="46.3"/>
	<line class="st2" x1="616.7" y1="47.8" x2="638.2" y2="37.4"/>
	<line class="st2" x1="617.7" y1="52.3" x2="641.6" y2="52.3"/>
	<line class="st2" x1="617.5" y1="54.6" x2="649.6" y2="61.9"/>
	<line class="st2" x1="615.5" y1="58.7" x2="628.4" y2="68.9"/>
	<line class="st2" x1="616.7" y1="56.7" x2="638.3" y2="67"/>
	<line class="st2" x1="613.9" y1="60.3" x2="628.8" y2="79"/>
</g>
</svg>
