<svg width="90" height="26" viewBox="0 0 90 26" fill="none" xmlns="http://www.w3.org/2000/svg">
<path d="M6.5 0.75H11.5C11.9762 0.75 12.178 0.750405 12.3434 0.761241C14.9723 0.933553 17.0664 3.02766 17.2388 5.65663C17.2496 5.82196 17.25 6.02384 17.25 6.5V17C17.25 21.5563 13.5563 25.25 9 25.25C4.44365 25.25 0.75 21.5563 0.75 17V6.5C0.75 6.02384 0.750405 5.82196 0.761241 5.65663C0.933553 3.02766 3.02766 0.933553 5.65663 0.761241C5.82196 0.750405 6.02384 0.75 6.5 0.75Z" stroke="white" stroke-width="1.5" stroke-linejoin="round"/>
<rect x="8" y="6" width="2" height="5" rx="1" fill="#F8961D"/>
<path d="M35.84 17.12C35.176 17.12 34.56 17.036 33.992 16.868C33.424 16.692 32.944 16.456 32.552 16.16L33.02 14.948C33.412 15.228 33.84 15.444 34.304 15.596C34.776 15.748 35.288 15.824 35.84 15.824C36.472 15.824 36.932 15.72 37.22 15.512C37.508 15.296 37.652 15.02 37.652 14.684C37.652 14.404 37.548 14.184 37.34 14.024C37.14 13.864 36.792 13.732 36.296 13.628L34.976 13.352C33.472 13.032 32.72 12.26 32.72 11.036C32.72 10.508 32.86 10.048 33.14 9.656C33.42 9.264 33.808 8.96 34.304 8.744C34.8 8.528 35.372 8.42 36.02 8.42C36.596 8.42 37.136 8.508 37.64 8.684C38.144 8.852 38.564 9.092 38.9 9.404L38.432 10.556C37.768 9.996 36.96 9.716 36.008 9.716C35.456 9.716 35.024 9.832 34.712 10.064C34.4 10.296 34.244 10.6 34.244 10.976C34.244 11.264 34.34 11.496 34.532 11.672C34.724 11.84 35.052 11.972 35.516 12.068L36.824 12.344C37.616 12.512 38.204 12.776 38.588 13.136C38.98 13.496 39.176 13.976 39.176 14.576C39.176 15.08 39.04 15.524 38.768 15.908C38.496 16.292 38.108 16.592 37.604 16.808C37.108 17.016 36.52 17.12 35.84 17.12ZM46.6303 17.12C45.7503 17.12 44.9943 16.944 44.3623 16.592C43.7383 16.232 43.2583 15.728 42.9223 15.08C42.5863 14.424 42.4183 13.652 42.4183 12.764C42.4183 11.876 42.5863 11.108 42.9223 10.46C43.2583 9.812 43.7383 9.312 44.3623 8.96C44.9943 8.6 45.7503 8.42 46.6303 8.42C47.1983 8.42 47.7343 8.508 48.2383 8.684C48.7503 8.86 49.1703 9.112 49.4983 9.44L48.9943 10.664C48.6343 10.36 48.2663 10.14 47.8903 10.004C47.5143 9.86 47.1103 9.788 46.6783 9.788C45.8223 9.788 45.1703 10.048 44.7223 10.568C44.2743 11.08 44.0503 11.812 44.0503 12.764C44.0503 13.716 44.2743 14.452 44.7223 14.972C45.1703 15.492 45.8223 15.752 46.6783 15.752C47.1103 15.752 47.5143 15.684 47.8903 15.548C48.2663 15.404 48.6343 15.18 48.9943 14.876L49.4983 16.1C49.1703 16.42 48.7503 16.672 48.2383 16.856C47.7343 17.032 47.1983 17.12 46.6303 17.12ZM53.0388 17V8.54H56.7108C57.6388 8.54 58.3548 8.764 58.8588 9.212C59.3628 9.652 59.6148 10.272 59.6148 11.072C59.6148 11.704 59.4508 12.228 59.1228 12.644C58.7948 13.052 58.3228 13.328 57.7068 13.472C58.1148 13.6 58.4508 13.908 58.7148 14.396L60.1308 17H58.4388L56.9748 14.3C56.8308 14.036 56.6588 13.856 56.4588 13.76C56.2668 13.664 56.0188 13.616 55.7148 13.616H54.5748V17H53.0388ZM54.5748 12.476H56.4468C57.5668 12.476 58.1268 12.02 58.1268 11.108C58.1268 10.204 57.5668 9.752 56.4468 9.752H54.5748V12.476ZM67.1988 17.12C66.3828 17.12 65.6668 16.94 65.0508 16.58C64.4428 16.22 63.9708 15.716 63.6348 15.068C63.2988 14.412 63.1308 13.644 63.1308 12.764C63.1308 11.876 63.2988 11.108 63.6348 10.46C63.9708 9.812 64.4428 9.312 65.0508 8.96C65.6588 8.6 66.3748 8.42 67.1988 8.42C68.0228 8.42 68.7388 8.6 69.3468 8.96C69.9548 9.312 70.4268 9.812 70.7628 10.46C71.0988 11.108 71.2668 11.872 71.2668 12.752C71.2668 13.64 71.0988 14.412 70.7628 15.068C70.4268 15.716 69.9548 16.22 69.3468 16.58C68.7388 16.94 68.0228 17.12 67.1988 17.12ZM67.1988 15.8C67.9748 15.8 68.5788 15.532 69.0108 14.996C69.4428 14.46 69.6588 13.716 69.6588 12.764C69.6588 11.804 69.4428 11.06 69.0108 10.532C68.5868 10.004 67.9828 9.74 67.1988 9.74C66.4228 9.74 65.8188 10.004 65.3868 10.532C64.9548 11.06 64.7388 11.804 64.7388 12.764C64.7388 13.716 64.9548 14.46 65.3868 14.996C65.8188 15.532 66.4228 15.8 67.1988 15.8ZM75.0287 17V8.54H76.5647V15.692H80.6207V17H75.0287ZM83.967 17V8.54H85.503V15.692H89.559V17H83.967Z" fill="white"/>
</svg>
